# xmcd
#
# Track frame offsets:
#	183
#	26866
#	43793
#	57002
#	79561
#	103127
#	121476
#	143093
#	159426
#	182161
#	197277
#
# Disc length: 2965 seconds
#
# Revision: 0
# Processed by: cddbd v1.5.2PL0 Copyright (c) Steve Scherf et al.
# Submitted via: dBpowerAMP V4.0
#
DISCID=8d0b930b
DTITLE=Delta Kings - Roadhouse Hullabaloo
DYEAR=2003
DGENRE=Blues
TTITLE0=Broken Promises
TTITLE1=Cross That Line
TTITLE2=Bim Bam Boom
TTITLE3=Livin' the Good Life
TTITLE4=So Many Tears
TTITLE5=Fresh Out of Understanding
TTITLE6=If I Give My Soul
TTITLE7=It Takes a Lot to Laugh It Takes a Train to Cry
TTITLE8=I Wouldn't Treat a Dog (The Way You Treated Me)
TTITLE9=In Town
TTITLE10=Down on this Earth
EXTD=
EXTT0=
EXTT1=
EXTT2=
EXTT3=
EXTT4=
EXTT5=
EXTT6=
EXTT7=
EXTT8=
EXTT9=
EXTT10=
PLAYORDER=
